<svg xmlns="http://www.w3.org/2000/svg" xmlns:xlink="http://www.w3.org/1999/xlink" width="1080" zoomAndPan="magnify" viewBox="0 0 810 809.999993" height="1080" preserveAspectRatio="xMidYMid meet" version="1.0"><defs><clipPath id="3d6c30be3f"><path d="M 173.316406 144.59375 L 363.910156 144.59375 L 363.910156 348.640625 L 173.316406 348.640625 Z M 173.316406 144.59375 " clip-rule="nonzero"/></clipPath><clipPath id="df37b9087f"><path d="M 173.324219 343.050781 C 174.226562 321.898438 175.273438 315.675781 176.175781 312 C 176.773438 309.675781 177.601562 309 177.976562 306.523438 C 178.648438 301.5 175.726562 290.324219 177.300781 283.125 C 178.726562 276.375 183 270.375 186.148438 264.523438 C 189.148438 258.976562 191.699219 254.101562 195.523438 248.773438 C 200.023438 242.476562 208.125 233.773438 211.949219 229.726562 C 213.824219 227.699219 214.050781 227.25 216.300781 225.375 C 222.148438 220.574219 247.800781 207.976562 249.824219 202.351562 C 250.5 200.25 248.023438 198.675781 248.175781 196.949219 C 248.398438 195.300781 249.449219 193.875 250.726562 192.148438 C 252.523438 189.75 256.125 186.074219 258.601562 184.273438 C 260.398438 183 261.523438 182.625 263.699219 181.726562 C 267.449219 180.148438 275.25 177.375 279.226562 176.324219 C 281.476562 175.726562 282.898438 175.5 284.851562 175.199219 C 286.875 174.824219 288.898438 174.375 291 174.375 C 293.324219 174.300781 295.800781 174.300781 298.125 174.898438 C 300.75 175.574219 304.199219 177.148438 305.851562 178.351562 C 306.824219 179.101562 307.425781 179.625 307.875 180.523438 C 308.398438 181.648438 308.851562 183.523438 308.550781 184.875 C 308.25 186.226562 307.273438 187.726562 306.148438 188.550781 C 305.101562 189.375 303.226562 190.273438 301.949219 189.75 C 300.074219 188.851562 297.300781 183.074219 297.375 180.300781 C 297.449219 177.898438 299.398438 176.175781 300.976562 173.925781 C 303.074219 171.074219 305.699219 168.375 309.148438 164.925781 C 314.398438 159.824219 325.050781 149.324219 330 146.773438 C 332.25 145.574219 333 145.648438 335.550781 145.351562 C 340.726562 144.75 355.574219 144.148438 359.699219 145.574219 C 361.351562 146.175781 362.101562 146.925781 362.773438 147.976562 C 363.449219 148.949219 363.75 150.601562 363.824219 151.648438 C 363.824219 152.398438 363.75 152.925781 363.375 153.601562 C 362.925781 154.5 361.949219 155.925781 360.898438 156.523438 C 359.851562 157.199219 358.351562 157.5 357.074219 157.351562 C 355.875 157.273438 354.449219 156.601562 353.625 155.773438 C 352.726562 154.875 351.976562 153.523438 351.75 152.324219 C 351.601562 151.125 351.976562 149.476562 352.425781 148.5 C 352.726562 147.824219 353.023438 147.375 353.625 146.925781 C 354.375 146.324219 355.875 145.425781 357.074219 145.351562 C 358.351562 145.199219 359.851562 145.5 360.898438 146.175781 C 361.949219 146.773438 362.925781 148.199219 363.375 149.101562 C 363.75 149.773438 363.824219 150.300781 363.824219 151.050781 C 363.75 152.023438 363.449219 153.75 362.773438 154.726562 C 362.101562 155.773438 361.351562 156.523438 359.699219 157.125 C 355.5 158.550781 342.449219 154.648438 335.175781 157.648438 C 327.375 160.800781 318.976562 172.648438 314.851562 176.925781 C 312.898438 178.949219 311.925781 179.851562 310.726562 181.5 C 309.523438 183.148438 308.851562 186.675781 307.800781 186.601562 C 306.375 186.601562 302.476562 178.050781 303.074219 177.449219 C 303.449219 177 306.074219 178.351562 306.976562 179.324219 C 307.949219 180.300781 308.625 182.023438 308.699219 183.375 C 308.699219 184.726562 308.023438 186.523438 307.273438 187.5 C 306.675781 188.324219 305.773438 188.925781 304.875 189.300781 C 303.976562 189.675781 303.226562 189.824219 301.949219 189.75 C 299.625 189.523438 295.574219 186.824219 292.199219 186.601562 C 288.523438 186.375 284.699219 187.574219 280.726562 188.699219 C 276.300781 189.976562 270.300781 192.300781 266.925781 194.101562 C 264.75 195.226562 263.25 196.125 261.976562 197.550781 C 260.773438 198.898438 259.726562 200.699219 259.199219 202.425781 C 258.75 204.226562 259.648438 206.398438 259.050781 208.050781 C 258.449219 209.699219 257.324219 210.675781 255.523438 212.476562 C 252 216 242.625 222.824219 237.375 226.574219 C 233.550781 229.273438 230.324219 230.773438 227.175781 233.175781 C 224.023438 235.5 221.398438 237.75 218.398438 240.675781 C 214.648438 244.351562 210.675781 248.398438 206.773438 253.648438 C 201.675781 260.625 194.101562 273.898438 191.476562 279.75 C 190.273438 282.449219 189.976562 283.199219 189.449219 286.050781 C 188.550781 291.449219 189.898438 302.925781 189 310.351562 C 188.175781 316.726562 185.773438 321.976562 184.875 327.898438 C 183.976562 333.75 184.949219 342.449219 183.375 345.523438 C 182.699219 346.949219 181.648438 347.625 180.523438 348.074219 C 179.476562 348.449219 177.824219 348.449219 176.773438 348.074219 C 175.648438 347.625 174.449219 346.425781 173.925781 345.523438 C 173.476562 344.773438 173.324219 343.050781 173.324219 343.050781 " clip-rule="nonzero"/></clipPath><clipPath id="4ec21f3280"><path d="M 352.617188 114 L 584.765625 114 L 584.765625 217.683594 L 352.617188 217.683594 Z M 352.617188 114 " clip-rule="nonzero"/></clipPath><clipPath id="7b81094bc4"><path d="M 353.625 148.273438 C 371.101562 126.824219 371.851562 126.148438 374.550781 124.574219 C 379.648438 121.726562 390.824219 116.625 398.550781 115.199219 C 405.226562 113.925781 412.5 113.925781 417.898438 115.199219 C 422.101562 116.175781 425.773438 118.726562 428.476562 120.523438 C 430.5 121.875 431.773438 123 433.199219 124.425781 C 434.699219 125.925781 435.601562 128.773438 437.25 129.375 C 438.824219 129.976562 440.398438 128.625 442.726562 128.398438 C 446.925781 127.949219 455.925781 127.875 460.273438 128.324219 C 462.898438 128.625 464.625 128.699219 466.574219 129.601562 C 468.601562 130.574219 470.851562 132.449219 472.199219 134.101562 C 473.324219 135.601562 474.074219 137.476562 474.375 139.050781 C 474.675781 140.324219 474.675781 141.601562 474.375 142.648438 C 474.148438 143.625 473.699219 144.523438 473.101562 145.273438 C 472.5 146.023438 471.675781 146.625 470.773438 147 C 469.875 147.375 468.898438 147.601562 467.851562 147.449219 C 466.648438 147.300781 464.851562 146.398438 463.949219 145.574219 C 463.199219 144.824219 462.824219 143.773438 462.523438 143.023438 C 462.375 142.5 462.226562 142.199219 462.300781 141.523438 C 462.449219 140.25 462.976562 137.324219 464.398438 135.824219 C 466.125 133.949219 469.425781 132.75 472.875 132 C 477.824219 130.949219 487.199219 131.175781 491.625 131.925781 C 494.175781 132.449219 495.300781 132.976562 497.476562 134.175781 C 500.925781 136.050781 505.273438 139.574219 509.476562 143.175781 C 514.648438 147.601562 522.601562 155.175781 526.050781 158.925781 C 527.773438 160.875 528 163.125 529.574219 163.648438 C 531.148438 164.175781 533.023438 162.300781 535.351562 162.074219 C 538.574219 161.699219 543.824219 161.398438 547.351562 162.675781 C 550.875 163.949219 553.726562 166.949219 556.648438 169.574219 C 559.800781 172.425781 562.273438 174.898438 565.5 179.25 C 570.75 186.226562 581.773438 203.324219 583.726562 208.648438 C 584.398438 210.449219 584.550781 211.351562 584.324219 212.550781 C 584.101562 213.824219 583.125 215.25 582.449219 216 C 581.925781 216.601562 581.476562 216.898438 580.726562 217.125 C 579.75 217.5 577.875 217.648438 576.824219 217.5 C 576.074219 217.425781 575.550781 217.199219 574.949219 216.75 C 574.125 216.074219 572.925781 214.875 572.476562 213.675781 C 572.023438 212.550781 571.949219 210.976562 572.324219 209.773438 C 572.625 208.574219 573.601562 207.300781 574.574219 206.550781 C 575.550781 205.800781 577.273438 205.425781 578.324219 205.351562 C 579.074219 205.273438 579.601562 205.351562 580.273438 205.648438 C 581.25 206.101562 582.75 207.300781 583.425781 208.125 C 583.875 208.726562 584.101562 209.175781 584.175781 209.925781 C 584.398438 210.976562 584.25 212.851562 583.949219 213.824219 C 583.726562 214.574219 583.273438 215.023438 582.898438 215.550781 C 582.449219 216.074219 582 216.523438 581.324219 216.824219 C 580.351562 217.273438 578.699219 217.800781 577.5 217.648438 C 576.226562 217.5 575.324219 217.199219 573.898438 215.925781 C 570 212.324219 562.875 195.75 557.476562 188.550781 C 553.351562 183.226562 548.925781 177.824219 545.324219 175.726562 C 543.148438 174.523438 541.726562 174.675781 539.324219 174.300781 C 535.648438 173.851562 528.75 174.976562 525.375 173.925781 C 523.125 173.25 522.375 172.425781 520.273438 170.699219 C 516 167.324219 507.675781 157.574219 502.351562 152.773438 C 498.375 149.25 495.375 145.351562 491.550781 144 C 488.023438 142.800781 483.523438 144.75 480.449219 144.074219 C 478.125 143.476562 475.5 140.699219 474.523438 141.148438 C 473.851562 141.523438 474.300781 143.175781 473.925781 144.074219 C 473.476562 144.898438 472.875 145.726562 472.050781 146.25 C 471 146.925781 469.199219 147.601562 467.851562 147.449219 C 466.5 147.300781 464.925781 146.550781 463.949219 145.574219 C 463.050781 144.601562 463.050781 142.425781 462.300781 141.523438 C 461.773438 140.925781 461.398438 140.699219 460.273438 140.398438 C 456.449219 139.351562 438.75 141.601562 433.5 140.101562 C 431.101562 139.351562 429.976562 138.375 428.550781 137.101562 C 427.125 135.75 426.675781 133.648438 424.875 132.074219 C 422.476562 129.898438 418.125 126.898438 414.375 125.851562 C 410.699219 124.875 405.898438 125.476562 402.675781 125.773438 C 400.351562 125.925781 399.226562 126.074219 396.824219 126.75 C 392.324219 127.949219 382.5 131.25 378.375 133.875 C 375.75 135.601562 374.925781 136.875 372.824219 139.199219 C 369.300781 143.175781 362.851562 154.199219 360 156 C 359.023438 156.601562 358.425781 156.601562 357.601562 156.449219 C 356.550781 156.375 355.050781 155.851562 354.226562 155.101562 C 353.398438 154.273438 352.726562 152.925781 352.648438 151.800781 C 352.5 150.675781 353.625 148.273438 353.625 148.273438 " clip-rule="nonzero"/></clipPath><clipPath id="548fcad48e"><path d="M 572.644531 206 L 638.882812 206 L 638.882812 318.25 L 572.644531 318.25 Z M 572.644531 206 " clip-rule="nonzero"/></clipPath><clipPath id="8e684c8207"><path d="M 583.425781 210.074219 C 591.226562 227.398438 592.5 227.550781 594.300781 229.351562 C 597.449219 232.648438 602.476562 242.699219 606.449219 244.425781 C 608.851562 245.476562 611.476562 243.523438 613.574219 243.898438 C 615.449219 244.199219 616.875 245.023438 618.523438 246 C 620.398438 247.125 622.351562 248.699219 624.148438 250.726562 C 626.398438 253.125 628.5 256.273438 630.601562 260.023438 C 633.300781 264.824219 637.199219 272.023438 638.324219 277.726562 C 639.300781 282.523438 638.476562 286.425781 638.023438 291.601562 C 637.425781 298.199219 635.851562 310.273438 634.574219 313.949219 C 634.050781 315.226562 633.75 315.675781 633.074219 316.351562 C 632.398438 317.023438 631.574219 317.625 630.601562 317.851562 C 629.476562 318.148438 627.523438 318 626.398438 317.625 C 625.5 317.25 624.75 316.574219 624.148438 315.824219 C 623.550781 315.074219 623.175781 314.324219 622.949219 313.199219 C 622.648438 311.550781 622.574219 308.476562 623.175781 306.75 C 623.625 305.476562 624.675781 304.351562 625.425781 303.675781 C 626.023438 303.226562 626.476562 303 627.226562 302.851562 C 628.199219 302.699219 629.925781 302.625 630.976562 303.074219 C 632.101562 303.523438 633.300781 304.726562 633.898438 305.550781 C 634.351562 306.148438 634.574219 306.601562 634.648438 307.351562 C 634.800781 308.324219 634.726562 310.050781 634.273438 311.101562 C 633.75 312.226562 632.476562 313.351562 631.648438 313.875 C 631.050781 314.324219 630.523438 314.476562 629.773438 314.550781 C 628.800781 314.625 627.074219 314.476562 626.023438 313.949219 C 624.976562 313.351562 623.925781 312.226562 623.398438 311.175781 C 622.875 310.050781 622.875 308.398438 622.949219 307.351562 C 623.101562 306.675781 623.25 306.148438 623.699219 305.550781 C 624.300781 304.726562 625.5 303.523438 626.625 303.074219 C 627.675781 302.625 629.398438 302.699219 630.375 302.851562 C 631.125 303 631.574219 303.226562 632.175781 303.675781 C 632.925781 304.351562 634.050781 305.398438 634.5 306.675781 C 635.101562 308.550781 635.023438 312.226562 634.574219 313.949219 C 634.273438 315 633.824219 315.675781 633.074219 316.351562 C 632.175781 317.175781 630.449219 317.925781 629.25 318.074219 C 628.199219 318.226562 627.226562 318 626.398438 317.625 C 625.574219 317.25 624.75 316.648438 624.148438 315.824219 C 623.476562 314.851562 623.023438 313.800781 622.875 311.773438 C 622.5 306.824219 626.476562 290.699219 626.625 284.925781 C 626.699219 282.226562 626.699219 281.175781 626.175781 278.925781 C 625.425781 275.925781 623.625 272.101562 621.898438 268.726562 C 619.875 264.976562 617.175781 259.648438 614.699219 257.476562 C 613.125 256.050781 611.851562 255.75 609.898438 255.074219 C 607.050781 254.175781 602.550781 255 599.175781 252.976562 C 594.449219 250.199219 589.199219 240.523438 585.898438 237.148438 C 584.175781 235.425781 582.976562 235.199219 581.699219 233.550781 C 579.898438 231.300781 578.324219 227.476562 576.898438 224.023438 C 575.324219 220.199219 572.773438 214.5 572.851562 211.648438 C 572.851562 210.074219 573.300781 208.875 574.125 207.976562 C 574.875 207.074219 576.300781 206.324219 577.425781 206.101562 C 578.625 205.949219 580.199219 206.324219 581.175781 207 C 582.226562 207.601562 583.425781 210.074219 583.425781 210.074219 " clip-rule="nonzero"/></clipPath><clipPath id="526aef55af"><path d="M 574 301.070312 L 645.804688 301.070312 L 645.804688 397.214844 L 574 397.214844 Z M 574 301.070312 " clip-rule="nonzero"/></clipPath><clipPath id="4f5483ce52"><path d="M 632.773438 306.074219 C 636.523438 325.949219 642.898438 341.476562 644.476562 349.351562 C 645.375 353.925781 645.824219 357.300781 645.449219 360.523438 C 645.148438 363.074219 644.550781 365.625 643.273438 367.273438 C 642.074219 368.699219 640.5 369.074219 638.324219 370.050781 C 634.5 371.773438 626.851562 373.5 621.976562 375.601562 C 617.773438 377.398438 613.726562 378.75 610.726562 381.449219 C 607.726562 384.148438 606.074219 389.398438 603.824219 391.800781 C 602.25 393.449219 601.125 394.425781 599.101562 395.324219 C 596.101562 396.523438 590.476562 397.273438 587.101562 397.125 C 584.699219 397.050781 582.449219 395.851562 580.875 395.773438 C 579.824219 395.699219 579.074219 396.148438 578.25 396 C 577.648438 395.925781 577.050781 395.625 576.523438 395.101562 C 575.699219 394.351562 574.648438 393 574.273438 391.800781 C 573.976562 390.601562 574.050781 389.023438 574.574219 387.824219 C 575.023438 386.699219 576.074219 385.5 577.125 384.824219 C 578.175781 384.226562 579.898438 384 581.023438 384 C 581.773438 384 582.226562 384.148438 582.898438 384.523438 C 583.875 385.050781 585.226562 386.175781 585.75 387.300781 C 586.351562 388.425781 586.574219 390 586.425781 391.199219 C 586.199219 392.398438 585.449219 393.824219 584.550781 394.726562 C 583.648438 395.550781 582 396.148438 580.949219 396.300781 C 580.199219 396.449219 579.675781 396.449219 578.925781 396.226562 C 577.875 395.925781 576.375 395.101562 575.550781 394.125 C 574.726562 393.226562 574.125 391.726562 574.125 390.449219 C 574.050781 389.25 574.5 387.675781 575.175781 386.699219 C 575.851562 385.648438 576.898438 384.75 578.324219 384.300781 C 580.574219 383.550781 585.148438 384 587.851562 384.449219 C 589.949219 384.75 591.824219 386.851562 593.398438 386.175781 C 595.648438 385.199219 596.550781 377.925781 598.574219 375.375 C 599.925781 373.648438 601.050781 373.125 603.226562 371.699219 C 607.199219 369.226562 616.351562 364.425781 621 362.625 C 623.773438 361.5 625.726562 361.050781 627.976562 360.675781 C 629.925781 360.375 632.625 361.648438 633.601562 360.523438 C 635.101562 358.875 633.75 353.851562 632.925781 349.351562 C 631.574219 341.851562 625.800781 328.050781 624 320.175781 C 622.875 315 621.898438 310.125 622.050781 307.125 C 622.125 305.550781 622.351562 304.425781 623.023438 303.449219 C 623.699219 302.476562 625.199219 301.648438 626.25 301.351562 C 627.074219 301.125 627.976562 301.199219 628.800781 301.425781 C 629.625 301.648438 630.449219 302.023438 631.050781 302.625 C 631.875 303.449219 632.773438 306.074219 632.773438 306.074219 " clip-rule="nonzero"/></clipPath><clipPath id="2840bd2cb4"><path d="M 531.5625 384.5625 L 585.703125 384.5625 L 585.703125 481.59375 L 531.5625 481.59375 Z M 531.5625 384.5625 " clip-rule="nonzero"/></clipPath><clipPath id="478df11a4e"><path d="M 585.148438 392.476562 C 568.125 422.324219 561.976562 424.050781 560.851562 427.050781 C 560.101562 429 561.601562 430.273438 561.75 432.976562 C 562.125 438.898438 562.875 455.398438 561.148438 461.25 C 560.324219 464.101562 558.898438 465.449219 557.550781 467.25 C 556.273438 468.898438 555.148438 470.101562 553.351562 471.75 C 550.726562 474.148438 546.226562 478.648438 543 480.074219 C 540.675781 481.125 538.273438 481.949219 536.550781 481.125 C 534.449219 480.226562 532.125 475.425781 531.75 473.699219 C 531.523438 472.875 531.675781 472.425781 531.976562 471.675781 C 532.351562 470.699219 533.175781 469.199219 534.226562 468.449219 C 535.199219 467.699219 536.925781 467.25 537.976562 467.175781 C 538.726562 467.101562 539.25 467.175781 539.925781 467.476562 C 540.898438 467.925781 542.398438 469.050781 543.074219 469.949219 C 543.601562 470.476562 543.824219 471 543.976562 471.75 C 544.125 472.800781 544.199219 474.523438 543.75 475.726562 C 543.226562 476.851562 542.25 478.050781 541.125 478.726562 C 540.074219 479.398438 538.5 479.699219 537.300781 479.550781 C 536.023438 479.398438 534.601562 478.726562 533.699219 477.898438 C 532.726562 477 532.050781 475.425781 531.824219 474.375 C 531.675781 473.625 531.675781 473.101562 531.824219 472.351562 C 532.050781 471.300781 532.800781 469.726562 533.699219 468.898438 C 534.601562 468 536.25 467.398438 537.300781 467.175781 C 538.050781 467.101562 538.574219 467.101562 539.324219 467.324219 C 540.300781 467.625 541.875 468.449219 542.699219 469.351562 C 543.523438 470.324219 544.648438 472.425781 544.125 473.101562 C 543.375 474.074219 535.351562 473.175781 534.898438 471.75 C 534.300781 469.726562 545.625 463.199219 547.949219 459.824219 C 549.148438 457.949219 549.300781 457.199219 549.75 454.726562 C 550.875 448.800781 548.023438 429.300781 550.050781 423.148438 C 551.101562 420.148438 552.601562 419.175781 554.398438 417.300781 C 556.648438 414.976562 559.949219 413.925781 562.800781 410.699219 C 567.449219 405.300781 573.300781 388.800781 577.050781 385.875 C 578.398438 384.75 579.523438 384.675781 580.726562 384.75 C 581.925781 384.898438 583.351562 385.574219 584.175781 386.398438 C 585 387.300781 585.601562 388.875 585.675781 389.925781 C 585.75 390.824219 585.148438 392.476562 585.148438 392.476562 " clip-rule="nonzero"/></clipPath><clipPath id="258271b37a"><path d="M 221 404 L 543.496094 404 L 543.496094 539 L 221 539 Z M 221 404 " clip-rule="nonzero"/></clipPath><clipPath id="76d31adc78"><path d="M 542.851562 475.050781 C 535.648438 489.675781 531.449219 496.5 526.5 501.523438 C 521.25 506.925781 513.898438 511.273438 507.375 515.625 C 501.074219 519.75 494.773438 524.101562 488.101562 526.875 C 481.648438 529.574219 474.976562 531 467.925781 532.125 C 460.351562 533.398438 450.523438 533.773438 444 533.851562 C 439.351562 533.851562 435.148438 534.449219 432.226562 533.101562 C 429.976562 532.050781 428.851562 527.699219 427.273438 527.699219 C 425.925781 527.773438 425.398438 531.074219 423.449219 532.273438 C 420.523438 534.148438 414.976562 534.898438 410.175781 535.574219 C 404.699219 536.25 397.351562 537.074219 392.175781 535.875 C 387.898438 534.898438 383.476562 532.199219 381 530.324219 C 379.5 529.199219 378.449219 528.148438 377.925781 526.949219 C 377.476562 526.050781 377.398438 525 377.550781 524.023438 C 377.625 523.125 378 522.074219 378.523438 521.25 C 379.050781 520.5 379.875 519.75 380.699219 519.300781 C 381.523438 518.851562 382.5 518.476562 383.550781 518.550781 C 384.75 518.625 386.699219 518.925781 387.601562 520.050781 C 388.875 521.476562 389.476562 525.226562 389.101562 527.476562 C 388.726562 529.726562 387.226562 532.125 385.5 533.699219 C 383.625 535.351562 380.550781 536.175781 378.074219 536.925781 C 375.675781 537.675781 373.949219 538.050781 370.875 538.351562 C 365.324219 538.875 352.726562 539.101562 347.398438 538.574219 C 344.625 538.273438 343.425781 537.898438 341.023438 537.148438 C 337.800781 536.175781 333.148438 534.824219 329.625 532.648438 C 325.800781 530.324219 321.898438 526.050781 319.125 523.273438 C 317.175781 521.324219 315.976562 520.5 314.324219 518.023438 C 311.550781 513.824219 309 500.625 305.851562 499.425781 C 304.273438 498.75 303 501.601562 300.824219 501.601562 C 296.851562 501.675781 287.851562 496.949219 283.800781 494.699219 C 281.398438 493.425781 280.425781 492.601562 278.324219 490.875 C 274.875 488.101562 268.648438 481.726562 265.726562 478.800781 C 264 477.226562 262.875 476.550781 261.898438 474.976562 C 260.699219 473.25 259.648438 470.699219 259.273438 468.75 C 258.898438 467.175781 258.976562 465.601562 259.273438 464.398438 C 259.5 463.351562 259.949219 462.449219 260.625 461.699219 C 261.226562 461.023438 262.125 460.351562 263.023438 459.976562 C 263.925781 459.675781 265.050781 459.523438 266.023438 459.601562 C 267 459.675781 267.976562 460.050781 268.800781 460.648438 C 269.625 461.175781 270.375 462 270.824219 462.824219 C 271.273438 463.648438 271.726562 464.550781 271.574219 465.675781 C 271.351562 467.476562 269.625 470.851562 268.050781 472.273438 C 266.699219 473.476562 265.050781 474.074219 263.175781 474.300781 C 260.699219 474.601562 256.800781 473.773438 254.398438 472.726562 C 252.523438 471.898438 251.25 470.550781 249.75 469.199219 C 248.175781 467.773438 246.675781 466.425781 245.324219 464.324219 C 243.375 461.324219 241.5 456.675781 240.074219 452.324219 C 238.425781 447.449219 237.601562 440.175781 236.324219 436.425781 C 235.574219 434.25 234.601562 433.574219 234.074219 431.550781 C 233.398438 428.699219 235.199219 422.476562 233.476562 420.824219 C 232.125 419.476562 228.148438 421.648438 226.199219 420.75 C 224.398438 420 221.925781 417.226562 221.925781 416.25 C 222 415.800781 223.125 415.726562 223.273438 415.199219 C 223.351562 414.375 221.476562 412.875 221.25 411.675781 C 221.023438 410.398438 221.25 408.75 221.773438 407.625 C 222.375 406.5 223.5 405.300781 224.699219 404.773438 C 225.824219 404.175781 227.625 404.101562 228.675781 404.25 C 229.425781 404.324219 229.949219 404.476562 230.625 404.925781 C 231.523438 405.523438 232.800781 406.949219 233.324219 407.925781 C 233.699219 408.601562 233.851562 409.199219 233.851562 409.949219 C 233.851562 411 233.550781 412.800781 232.875 413.851562 C 232.125 414.976562 230.851562 415.949219 229.648438 416.398438 C 228.449219 416.851562 226.875 416.925781 225.601562 416.550781 C 224.398438 416.175781 223.050781 415.199219 222.300781 414.148438 C 221.550781 413.101562 221.101562 411.601562 221.101562 410.25 C 221.175781 408.976562 221.699219 407.476562 222.523438 406.5 C 223.351562 405.449219 224.925781 404.625 225.976562 404.25 C 226.726562 404.023438 227.25 404.023438 228 404.101562 C 229.050781 404.324219 231 404.851562 231.75 405.75 C 232.5 406.574219 231.824219 408.601562 232.648438 409.273438 C 233.625 410.023438 236.25 409.050781 237.976562 409.273438 C 239.773438 409.5 241.949219 409.574219 243.300781 410.699219 C 244.875 412.050781 245.550781 414.824219 246.148438 417.449219 C 246.824219 420.601562 245.925781 424.5 246.523438 428.625 C 247.273438 434.023438 249.300781 441.449219 251.324219 446.925781 C 253.050781 451.5 254.925781 456.824219 257.398438 459.226562 C 259.125 460.875 262.875 460.726562 263.101562 461.851562 C 263.25 462.976562 259.5 466.050781 259.125 465.898438 C 258.824219 465.75 259.351562 463.800781 259.800781 462.976562 C 260.25 462.074219 260.925781 461.25 261.75 460.726562 C 262.5 460.125 263.550781 459.75 264.523438 459.601562 C 265.425781 459.449219 266.476562 459.523438 267.449219 459.898438 C 268.648438 460.425781 270.226562 461.625 270.824219 462.824219 C 271.425781 463.949219 270.375 465.300781 271.125 466.949219 C 273.074219 470.851562 282.675781 479.476562 288.976562 483.375 C 294.375 486.675781 301.648438 488.925781 305.925781 489.824219 C 308.398438 490.351562 310.199219 489.449219 312 490.199219 C 313.875 490.949219 315.449219 492.300781 317.023438 494.476562 C 319.574219 497.925781 321.449219 506.625 323.699219 510.226562 C 325.125 512.398438 326.25 513.148438 327.976562 514.875 C 330.226562 517.199219 332.925781 520.800781 336.148438 522.675781 C 339.375 524.625 342.898438 525.675781 347.476562 526.425781 C 353.851562 527.324219 365.625 527.25 371.023438 526.050781 C 374.023438 525.300781 376.351562 522.226562 377.773438 522.824219 C 379.125 523.5 379.800781 529.273438 379.648438 529.351562 C 379.425781 529.425781 377.773438 526.726562 377.550781 525.523438 C 377.324219 524.550781 377.550781 523.5 377.851562 522.601562 C 378.148438 521.699219 378.675781 520.800781 379.5 520.125 C 380.476562 519.375 382.273438 518.625 383.550781 518.550781 C 384.523438 518.476562 385.273438 518.773438 386.398438 519.226562 C 388.273438 520.050781 390.449219 522.898438 393.300781 523.800781 C 396.75 524.851562 402.601562 524.023438 406.125 523.800781 C 408.523438 523.648438 409.726562 523.5 412.273438 522.976562 C 416.476562 522.074219 424.800781 518.625 428.773438 518.324219 C 431.023438 518.175781 432.375 518.398438 434.023438 519 C 435.976562 519.675781 437.25 521.699219 439.648438 522.300781 C 443.101562 523.199219 448.199219 522.523438 453.300781 522.148438 C 459.824219 521.550781 470.625 519.675781 475.574219 518.476562 C 478.125 517.875 479.175781 517.648438 481.273438 516.75 C 484.351562 515.550781 487.726562 513.75 492 511.273438 C 498.675781 507.375 510.675781 500.550781 517.050781 494.625 C 522.148438 489.976562 525.601562 484.574219 528.675781 479.851562 C 531.148438 475.949219 532.800781 470.324219 534.601562 468.601562 C 535.425781 467.851562 536.023438 467.625 536.925781 467.550781 C 538.050781 467.398438 539.699219 467.625 540.75 468.226562 C 541.726562 468.824219 542.773438 470.101562 543.074219 471.226562 C 543.449219 472.351562 542.851562 475.050781 542.851562 475.050781 " clip-rule="nonzero"/></clipPath><clipPath id="68e4dbbe12"><path d="M 318.320312 337.570312 L 356.734375 337.570312 L 356.734375 376.683594 L 318.320312 376.683594 Z M 318.320312 337.570312 " clip-rule="nonzero"/></clipPath><clipPath id="971e2bb908"><path d="M 356.625 351.300781 C 356.625 363.601562 355.199219 366.75 353.324219 369.148438 C 351.449219 371.550781 348.75 373.648438 345.976562 374.925781 C 343.199219 376.125 339.824219 376.800781 336.824219 376.574219 C 333.75 376.425781 330.449219 375.375 327.898438 373.800781 C 325.273438 372.226562 322.875 369.824219 321.300781 367.199219 C 319.726562 364.648438 318.675781 361.351562 318.523438 358.273438 C 318.300781 355.273438 318.976562 351.898438 320.175781 349.125 C 321.449219 346.351562 323.550781 343.648438 325.949219 341.773438 C 328.351562 339.898438 331.5 338.476562 334.5 337.949219 C 337.425781 337.425781 340.875 337.648438 343.800781 338.550781 C 346.648438 339.449219 351.75 343.351562 351.75 343.351562 " clip-rule="nonzero"/></clipPath><clipPath id="2844a12809"><path d="M 448.367188 340.871094 L 486.609375 340.871094 L 486.609375 379.980469 L 448.367188 379.980469 Z M 448.367188 340.871094 " clip-rule="nonzero"/></clipPath><clipPath id="ee061f4d88"><path d="M 486.601562 354.601562 C 486.675781 366.898438 485.25 370.050781 483.375 372.449219 C 481.5 374.851562 478.800781 376.949219 476.023438 378.226562 C 473.25 379.425781 469.875 380.101562 466.800781 379.875 C 463.800781 379.726562 460.5 378.675781 457.949219 377.101562 C 455.324219 375.523438 452.851562 373.125 451.351562 370.5 C 449.773438 367.949219 448.726562 364.648438 448.574219 361.574219 C 448.351562 358.574219 449.023438 355.199219 450.226562 352.425781 C 451.5 349.648438 453.601562 346.949219 456 345.074219 C 458.398438 343.199219 461.550781 341.773438 464.476562 341.25 C 467.476562 340.726562 470.925781 340.875 473.851562 341.773438 C 476.699219 342.675781 481.800781 346.648438 481.800781 346.648438 " clip-rule="nonzero"/></clipPath><clipPath id="94e52dc5f6"><path d="M 385 381.339844 L 426.429688 381.339844 L 426.429688 419.34375 L 385 419.34375 Z M 385 381.339844 " clip-rule="nonzero"/></clipPath><clipPath id="727c92c340"><path d="M 402.226562 383.023438 C 410.476562 383.851562 422.773438 387.300781 425.101562 392.476562 C 427.574219 398.175781 423.675781 412.574219 418.648438 416.625 C 414 420.300781 402.824219 419.773438 397.125 417.300781 C 391.949219 414.976562 386.101562 408.675781 385.199219 403.351562 C 384.300781 397.726562 388.273438 387.675781 392.925781 384.226562 C 397.574219 380.773438 407.773438 381.074219 413.023438 382.425781 C 416.851562 383.398438 420 386.023438 422.175781 388.574219 C 424.125 390.675781 425.324219 393.375 425.925781 396 C 426.523438 398.625 426.449219 401.773438 425.699219 404.324219 C 425.023438 406.949219 423.523438 409.648438 421.726562 411.675781 C 419.851562 413.625 417.300781 415.351562 414.75 416.25 C 412.199219 417.148438 408.675781 417.226562 406.425781 417.074219 C 404.773438 416.925781 403.800781 416.625 402.375 415.949219 C 400.273438 414.976562 395.324219 411.601562 395.625 411.074219 C 396 410.25 414.75 415.199219 414.75 416.25 C 414.75 416.773438 411.074219 417.226562 409.199219 417.226562 C 407.324219 417.300781 405.375 417 403.574219 416.398438 C 401.851562 415.875 400.050781 414.976562 398.550781 413.851562 C 397.050781 412.726562 395.699219 411.375 394.648438 409.800781 C 393.601562 408.300781 392.699219 406.5 392.175781 404.773438 C 391.648438 402.976562 391.425781 401.023438 391.5 399.148438 C 391.574219 397.273438 391.949219 395.324219 392.625 393.601562 C 393.300781 391.875 394.273438 390.148438 395.476562 388.726562 C 396.601562 387.300781 398.101562 386.023438 399.675781 385.050781 C 401.25 384 403.050781 383.25 404.851562 382.875 C 406.726562 382.425781 408.675781 382.273438 410.476562 382.425781 C 412.351562 382.648438 414.300781 383.101562 415.949219 383.851562 C 417.675781 384.601562 419.324219 385.726562 420.675781 386.925781 C 422.023438 388.199219 423.300781 389.773438 424.199219 391.425781 C 425.101562 393 425.699219 394.875 426.074219 396.675781 C 426.375 398.550781 426.449219 400.5 426.148438 402.375 C 425.851562 404.175781 425.25 406.050781 424.425781 407.699219 C 423.601562 409.351562 422.398438 411 421.125 412.273438 C 419.773438 413.550781 418.125 414.675781 416.476562 415.5 C 414.824219 416.324219 412.875 416.851562 411.074219 417.074219 C 409.199219 417.300781 407.25 417.226562 405.449219 416.925781 C 403.574219 416.550781 401.773438 415.800781 400.125 414.898438 C 398.550781 413.925781 397.050781 412.726562 395.773438 411.300781 C 394.574219 409.875 393.523438 408.226562 392.851562 406.5 C 392.101562 404.773438 391.648438 402.898438 391.5 401.023438 C 391.351562 399.148438 391.574219 397.199219 392.023438 395.398438 C 392.476562 393.601562 393.300781 391.800781 394.351562 390.226562 C 395.324219 388.726562 396 386.925781 398.101562 386.101562 C 402.523438 384.449219 417.898438 385.574219 422.175781 388.574219 C 424.726562 390.300781 425.324219 393.375 425.925781 396 C 426.523438 398.625 426.449219 401.773438 425.699219 404.324219 C 425.023438 406.949219 423.523438 409.648438 421.726562 411.675781 C 419.851562 413.625 417.300781 415.351562 414.75 416.25 C 412.199219 417.148438 409.125 417.449219 406.425781 417.074219 C 403.726562 416.699219 400.574219 415.125 398.699219 413.925781 C 397.351562 413.101562 395.398438 411.523438 395.625 411.074219 C 396 410.25 406.273438 415.726562 410.101562 413.925781 C 414.300781 412.050781 420.226562 402.601562 419.101562 398.324219 C 417.898438 393.675781 405.601562 386.398438 401.324219 387.675781 C 397.351562 388.875 392.851562 399.300781 393.675781 404.101562 C 394.574219 408.824219 407.101562 414.898438 406.425781 416.398438 C 405.976562 417.375 400.800781 416.550781 398.25 415.800781 C 395.699219 415.050781 393.148438 413.773438 391.199219 412.125 C 389.25 410.398438 387.523438 407.550781 386.625 405.523438 C 386.023438 404.175781 385.800781 403.199219 385.726562 401.625 C 385.574219 399.449219 386.023438 395.773438 386.625 393.75 C 387.148438 392.25 387.601562 391.425781 388.5 390.226562 C 389.851562 388.5 392.175781 386.101562 394.5 384.898438 C 396.75 383.699219 402.226562 383.023438 402.226562 383.023438 " clip-rule="nonzero"/></clipPath><clipPath id="b3c0603919"><path d="M 169.09375 345.71875 L 220.304688 345.71875 L 220.304688 412.960938 L 169.09375 412.960938 Z M 169.09375 345.71875 " clip-rule="nonzero"/></clipPath><clipPath id="13b2c1a385"><path d="M 180.601562 350.925781 C 186.300781 374.476562 187.050781 375.898438 188.851562 378 C 191.324219 380.851562 195.976562 383.175781 199.199219 386.175781 C 202.574219 389.324219 205.425781 393.675781 208.875 396.449219 C 211.949219 398.925781 217.273438 400.648438 218.773438 402.226562 C 219.449219 402.898438 219.601562 403.351562 219.824219 404.101562 C 220.125 405.226562 220.273438 407.101562 219.898438 408.375 C 219.449219 409.648438 218.25 411 217.351562 411.75 C 216.75 412.273438 216.226562 412.5 215.398438 412.648438 C 214.273438 412.875 212.398438 412.949219 211.199219 412.5 C 209.925781 411.976562 208.574219 410.699219 207.898438 409.800781 C 207.449219 409.125 207.226562 408.601562 207.074219 407.773438 C 206.925781 406.648438 207.148438 404.625 207.523438 403.574219 C 207.75 402.824219 208.125 402.300781 208.726562 401.773438 C 209.550781 401.023438 211.125 399.976562 212.398438 399.75 C 213.75 399.523438 215.398438 399.75 216.601562 400.425781 C 217.800781 401.023438 219 402.449219 219.601562 403.425781 C 219.976562 404.175781 220.125 404.699219 220.125 405.523438 C 220.199219 406.648438 219.824219 408.601562 219.300781 409.648438 C 218.925781 410.398438 218.550781 410.851562 217.949219 411.300781 C 216.976562 411.976562 215.324219 412.875 213.976562 412.949219 C 212.625 413.023438 211.273438 412.425781 209.851562 411.824219 C 208.199219 411.148438 207 410.476562 204.75 408.898438 C 199.425781 405 184.5 393.226562 179.476562 386.699219 C 176.398438 382.726562 175.5 380.25 174 375.75 C 171.75 369.226562 168.523438 355.351562 169.199219 350.851562 C 169.5 349.050781 170.175781 348.074219 171.148438 347.25 C 172.125 346.425781 173.699219 345.824219 174.976562 345.824219 C 176.25 345.824219 177.824219 346.5 178.726562 347.324219 C 179.699219 348.148438 180.601562 350.925781 180.601562 350.925781 " clip-rule="nonzero"/></clipPath><clipPath id="b76469e9fb"><path d="M 241.292969 500.097656 L 260.53125 500.097656 L 260.53125 608.152344 L 241.292969 608.152344 Z M 241.292969 500.097656 " clip-rule="nonzero"/></clipPath><clipPath id="379b7a96fe"><path d="M 260.476562 506.25 C 259.351562 525.300781 256.425781 541.648438 255.375 552.523438 C 254.550781 561.601562 253.949219 570.824219 253.875 577.726562 C 253.875 582.523438 253.800781 585.976562 254.476562 589.949219 C 255.148438 594 258 599.023438 257.925781 601.949219 C 257.851562 603.601562 257.101562 604.875 256.5 605.773438 C 256.050781 606.449219 255.601562 606.75 254.925781 607.125 C 253.949219 607.648438 252.074219 608.101562 250.949219 608.101562 C 250.199219 608.101562 249.601562 607.949219 248.925781 607.574219 C 247.949219 607.050781 246.523438 606 245.925781 604.875 C 245.25 603.75 244.949219 602.101562 245.175781 600.824219 C 245.324219 599.550781 246.074219 598.050781 246.976562 597.148438 C 247.949219 596.25 249.601562 595.574219 250.648438 595.351562 C 251.476562 595.199219 252 595.199219 252.75 595.425781 C 253.800781 595.726562 255.449219 596.476562 256.273438 597.449219 C 257.175781 598.425781 257.699219 600.148438 257.925781 601.199219 C 258 602.023438 258 602.550781 257.699219 603.300781 C 257.398438 604.351562 256.5 605.925781 255.523438 606.75 C 254.476562 607.574219 252.898438 608.101562 251.625 608.101562 C 250.351562 608.175781 248.773438 607.648438 247.726562 606.898438 C 246.675781 606.148438 246.074219 605.175781 245.324219 603.601562 C 243.976562 600.675781 242.476562 593.773438 241.800781 590.023438 C 241.425781 587.398438 241.425781 586.125 241.351562 583.351562 C 241.273438 578.925781 241.648438 572.925781 242.175781 565.800781 C 243.074219 554.550781 245.550781 529.949219 246.898438 522.300781 C 247.425781 519.449219 248.023438 518.851562 248.324219 516.523438 C 248.851562 513.226562 248.101562 506.851562 249.148438 504.148438 C 249.75 502.648438 250.648438 501.601562 251.699219 500.925781 C 252.824219 500.324219 254.476562 500.023438 255.75 500.25 C 257.023438 500.476562 258.449219 501.375 259.273438 502.351562 C 260.023438 503.398438 260.476562 506.25 260.476562 506.25 " clip-rule="nonzero"/></clipPath><clipPath id="2bd9680060"><path d="M 257.613281 621.160156 L 536 621.160156 L 536 678.816406 L 257.613281 678.816406 Z M 257.613281 621.160156 " clip-rule="nonzero"/></clipPath><clipPath id="5700eee2bd"><path d="M 265.199219 621.449219 C 321.675781 643.5 325.800781 644.398438 332.699219 647.101562 C 341.398438 650.550781 354.074219 657.074219 362.023438 660.148438 C 367.351562 662.25 371.925781 663.824219 375.601562 664.726562 C 378.074219 665.398438 378.898438 665.625 381.824219 665.851562 C 388.351562 666.375 403.648438 666.300781 414 665.550781 C 423.675781 664.875 431.699219 662.550781 442.050781 661.875 C 454.949219 661.050781 475.199219 663.449219 485.398438 661.949219 C 491.101562 661.125 494.550781 659.925781 498.449219 658.050781 C 502.199219 656.324219 505.351562 652.726562 508.5 651.300781 C 510.898438 650.101562 512.699219 649.800781 515.324219 649.199219 C 518.773438 648.375 527.175781 646.351562 527.476562 647.101562 C 527.773438 647.625 523.574219 651.074219 522.976562 650.773438 C 522.523438 650.550781 522.824219 648.601562 523.050781 647.773438 C 523.199219 647.023438 523.5 646.5 524.023438 645.898438 C 524.773438 645 526.425781 643.949219 527.550781 643.5 C 528.300781 643.273438 528.824219 643.199219 529.648438 643.351562 C 530.773438 643.5 532.5 644.023438 533.550781 644.925781 C 534.523438 645.75 535.425781 647.25 535.648438 648.523438 C 535.949219 649.800781 535.574219 651.601562 535.199219 652.726562 C 534.898438 653.476562 534.601562 653.925781 534 654.449219 C 533.175781 655.199219 531.375 656.101562 530.25 656.398438 C 529.5 656.550781 528.898438 656.550781 528.148438 656.398438 C 527.023438 656.101562 525.300781 655.125 524.398438 654.375 C 523.875 653.851562 523.5 653.398438 523.273438 652.648438 C 522.898438 651.523438 522.523438 649.726562 522.824219 648.449219 C 523.125 647.101562 524.175781 645.675781 525 644.851562 C 525.601562 644.25 526.050781 644.023438 526.875 643.726562 C 527.925781 643.425781 529.800781 643.199219 531.074219 643.574219 C 532.351562 643.949219 533.699219 644.851562 534.523438 645.976562 C 535.273438 647.023438 535.648438 648.523438 535.800781 649.949219 C 536.023438 651.523438 536.175781 653.699219 535.351562 655.199219 C 534.300781 657.074219 531.976562 658.875 529.5 660 C 526.351562 661.425781 520.800781 660.898438 517.351562 661.949219 C 514.726562 662.773438 512.625 663.898438 510.523438 665.101562 C 508.574219 666.226562 507.375 667.648438 505.125 668.773438 C 501.898438 670.425781 496.425781 672.148438 492.824219 673.125 C 490.050781 673.875 488.925781 674.25 485.398438 674.550781 C 477 675.375 456.148438 674.023438 442.648438 674.773438 C 430.425781 675.449219 418.726562 677.925781 407.773438 678.449219 C 398.25 678.898438 386.398438 678.601562 380.699219 678.226562 C 378.148438 678 377.550781 678 375.148438 677.476562 C 370.351562 676.273438 361.574219 673.199219 354.074219 670.273438 C 345.226562 666.75 333.976562 660.824219 325.351562 657.449219 C 318.601562 654.75 313.875 653.773438 306.824219 651.148438 C 297.300781 647.550781 279.898438 640.5 273.300781 637.351562 C 270.375 635.925781 269.25 634.875 267.148438 633.976562 C 265.050781 633.148438 262.273438 633 260.699219 631.949219 C 259.5 631.125 258.523438 630 258.148438 628.800781 C 257.699219 627.523438 257.773438 625.875 258.300781 624.675781 C 258.824219 623.476562 259.949219 622.273438 261.148438 621.75 C 262.273438 621.226562 265.199219 621.449219 265.199219 621.449219 " clip-rule="nonzero"/></clipPath><clipPath id="6dd4c6408c"><path d="M 562.75 478.226562 L 609.78125 478.226562 L 609.78125 599.1875 L 562.75 599.1875 Z M 562.75 478.226562 " clip-rule="nonzero"/></clipPath><clipPath id="6d984792b8"><path d="M 572.773438 480.449219 C 598.351562 518.398438 604.5 536.398438 606.75 548.023438 C 608.324219 555.898438 607.273438 562.648438 607.800781 568.574219 C 608.175781 573 609 576.148438 609.226562 580.199219 C 609.523438 584.773438 610.199219 591.675781 609.226562 594.675781 C 608.625 596.324219 607.800781 597.226562 606.75 597.976562 C 605.699219 598.648438 604.125 599.101562 602.851562 599.023438 C 601.5 598.949219 600 598.351562 599.023438 597.523438 C 598.050781 596.699219 597.300781 595.050781 596.925781 594.074219 C 596.699219 593.324219 596.699219 592.726562 596.851562 591.976562 C 597.074219 590.925781 597.824219 589.125 598.574219 588.300781 C 599.023438 587.699219 599.476562 587.324219 600.148438 587.023438 C 601.199219 586.574219 603.074219 586.273438 604.199219 586.351562 C 604.949219 586.425781 605.476562 586.648438 606.148438 587.023438 C 607.050781 587.625 608.398438 588.824219 608.925781 590.023438 C 609.449219 591.148438 609.675781 592.800781 609.375 594.074219 C 609.074219 595.273438 608.023438 596.773438 607.273438 597.523438 C 606.75 598.050781 606.300781 598.351562 605.550781 598.574219 C 604.5 598.875 602.699219 599.175781 601.425781 598.800781 C 600.226562 598.425781 598.875 597.523438 598.125 596.550781 C 597.300781 595.5 597.074219 594.300781 596.773438 592.648438 C 596.324219 589.949219 597.074219 585.824219 596.851562 581.625 C 596.625 576.074219 595.199219 568.125 594.976562 562.351562 C 594.824219 557.699219 595.726562 552.976562 595.199219 549.601562 C 594.898438 547.273438 594.375 546.449219 593.476562 543.898438 C 591.601562 538.5 585.300781 524.625 583.949219 519 C 583.273438 516.226562 583.875 514.574219 583.273438 512.699219 C 582.675781 510.898438 581.851562 509.925781 580.351562 507.75 C 577.199219 503.175781 566.101562 490.648438 563.925781 487.050781 C 563.25 485.925781 563.023438 485.476562 562.875 484.648438 C 562.726562 483.824219 562.726562 482.851562 563.101562 482.023438 C 563.476562 480.976562 564.523438 479.550781 565.574219 478.949219 C 566.625 478.351562 568.199219 478.125 569.398438 478.351562 C 570.601562 478.574219 572.773438 480.449219 572.773438 480.449219 " clip-rule="nonzero"/></clipPath><clipPath id="e8e8ced1ec"><path d="M 542.707031 606.082031 L 592.550781 606.082031 L 592.550781 641.917969 L 542.707031 641.917969 Z M 542.707031 606.082031 " clip-rule="nonzero"/></clipPath><clipPath id="4007e0a26d"><path d="M 545.851562 630.898438 C 569.550781 619.351562 570.375 618.75 572.25 617.25 C 575.175781 614.851562 579.824219 608.851562 582.601562 607.273438 C 584.101562 606.449219 585.226562 606.074219 586.5 606.148438 C 587.773438 606.226562 589.351562 607.050781 590.25 607.648438 C 590.851562 608.101562 591.226562 608.476562 591.601562 609.226562 C 592.050781 610.125 592.5 612.074219 592.5 613.125 C 592.425781 613.875 592.199219 614.476562 591.898438 615.074219 C 591.675781 615.675781 591.375 616.273438 590.773438 616.800781 C 590.023438 617.550781 588.523438 618.449219 587.25 618.675781 C 585.976562 618.898438 584.25 618.523438 583.273438 618.074219 C 582.523438 617.773438 582.148438 617.476562 581.625 616.875 C 580.949219 615.976562 580.125 614.25 579.898438 613.199219 C 579.75 612.449219 579.824219 611.925781 580.050781 611.175781 C 580.351562 610.125 581.101562 608.550781 582.074219 607.726562 C 583.050781 606.824219 584.550781 606.226562 585.824219 606.148438 C 587.101562 606.074219 588.675781 606.523438 589.726562 607.199219 C 590.773438 607.949219 591.75 609.226562 592.199219 610.425781 C 592.574219 611.625 592.726562 612.976562 592.199219 614.476562 C 591.148438 617.25 586.574219 621.675781 583.273438 624.523438 C 580.050781 627.300781 577.050781 629.25 572.699219 631.574219 C 566.398438 635.023438 553.125 641.773438 548.550781 641.851562 C 546.675781 641.851562 545.625 641.25 544.648438 640.351562 C 543.75 639.523438 542.925781 638.023438 542.773438 636.75 C 542.625 635.476562 543.148438 633.75 543.75 632.699219 C 544.273438 631.875 545.851562 630.898438 545.851562 630.898438 " clip-rule="nonzero"/></clipPath><clipPath id="cfeaed6b6c"><path d="M 243.027344 636.328125 L 369.871094 636.328125 L 369.871094 780.703125 L 243.027344 780.703125 Z M 243.027344 636.328125 " clip-rule="nonzero"/></clipPath><clipPath id="4b57c5fe56"><path d="M 254.773438 642.074219 C 256.648438 662.398438 257.773438 669 260.398438 676.800781 C 264.148438 687.601562 273.375 702.675781 278.023438 714.226562 C 281.851562 723.675781 284.324219 735.375 287.101562 740.773438 C 288.523438 743.476562 289.949219 744.449219 291.074219 746.398438 C 292.199219 748.273438 292.125 750.601562 293.773438 752.101562 C 296.175781 754.273438 302.25 754.648438 305.398438 756.449219 C 308.023438 757.875 309.675781 760.125 311.773438 761.476562 C 313.726562 762.601562 315 763.5 317.550781 764.25 C 321.898438 765.523438 331.875 764.699219 336 766.648438 C 338.625 767.851562 340.648438 769.949219 341.476562 771.601562 C 342 772.800781 341.925781 774.074219 341.625 775.199219 C 341.25 776.625 340.050781 778.351562 339 779.25 C 338.101562 780 337.050781 780.300781 336 780.449219 C 334.949219 780.601562 333.75 780.523438 332.773438 780.148438 C 331.800781 779.851562 330.75 779.175781 330.074219 778.425781 C 329.324219 777.675781 328.648438 776.773438 328.5 775.574219 C 328.273438 773.925781 328.949219 771.824219 330.148438 769.199219 C 332.550781 764.101562 340.648438 757.726562 344.773438 748.351562 C 351.226562 733.351562 353.101562 690.675781 358.050781 684.523438 C 359.324219 682.875 360.601562 682.875 362.023438 682.726562 C 363.375 682.574219 365.023438 683.023438 366.226562 683.699219 C 367.351562 684.449219 368.476562 686.023438 369 687.074219 C 369.300781 687.824219 369.375 688.5 369.375 689.175781 C 369.449219 689.925781 369.449219 690.601562 369.148438 691.351562 C 368.699219 692.476562 367.800781 694.125 366.675781 694.949219 C 365.550781 695.699219 363.675781 696.148438 362.550781 696.226562 C 361.726562 696.300781 361.125 696.226562 360.375 695.851562 C 359.324219 695.398438 357.75 694.351562 357 693.226562 C 356.25 692.023438 355.800781 690.375 355.875 689.023438 C 355.949219 687.675781 356.625 686.023438 357.523438 685.050781 C 358.425781 684 359.925781 683.101562 361.273438 682.875 C 362.625 682.574219 364.5 682.949219 365.550781 683.398438 C 366.375 683.625 366.824219 684 367.351562 684.601562 C 368.101562 685.5 369.074219 687.300781 369.375 688.5 C 369.523438 689.25 369.523438 689.851562 369.300781 690.675781 C 369 691.800781 366.976562 694.125 367.199219 694.425781 C 367.425781 694.648438 368.625 693.523438 369 693.824219 C 369.976562 694.574219 368.550781 700.875 367.726562 705.523438 C 366.523438 712.648438 362.925781 724.800781 361.351562 732.300781 C 360.300781 737.773438 360 742.125 358.949219 746.476562 C 357.976562 750.449219 357.375 753.75 355.351562 757.5 C 352.726562 762.300781 345.824219 768.300781 343.351562 772.125 C 341.851562 774.375 340.648438 777.824219 340.425781 777.75 C 340.125 777.675781 341.398438 771.976562 341.476562 771.976562 C 341.625 772.050781 341.699219 775.425781 341.023438 776.773438 C 340.425781 778.125 338.925781 779.476562 337.574219 780.074219 C 336.148438 780.601562 334.125 780.523438 332.773438 780.148438 C 331.726562 779.851562 330.75 779.175781 330.074219 778.425781 C 329.324219 777.675781 328.425781 775.648438 328.5 775.574219 C 328.574219 775.5 331.800781 778.875 331.5 779.550781 C 331.050781 780.300781 327.449219 779.625 324.898438 779.324219 C 321.226562 778.875 314.851562 777.675781 311.324219 776.550781 C 308.925781 775.726562 307.273438 775.125 305.476562 773.851562 C 303.523438 772.5 302.550781 769.875 300.300781 768.375 C 297.523438 766.5 292.425781 765.675781 289.5 764.101562 C 287.398438 762.976562 285.976562 762.300781 284.25 760.5 C 281.699219 757.800781 279.375 753.523438 276.976562 748.425781 C 273.226562 740.550781 270.148438 727.425781 265.949219 717.074219 C 261.601562 706.425781 254.476562 693.601562 251.25 685.273438 C 249.226562 680.101562 248.25 676.875 247.125 672.375 C 246 667.574219 245.324219 662.476562 244.726562 657.375 C 244.125 652.125 242.699219 644.699219 243.449219 641.398438 C 243.898438 639.75 244.574219 638.699219 245.550781 637.949219 C 246.523438 637.125 248.175781 636.675781 249.449219 636.75 C 250.648438 636.824219 252.226562 637.5 253.125 638.398438 C 254.023438 639.300781 254.773438 642.074219 254.773438 642.074219 " clip-rule="nonzero"/></clipPath><clipPath id="3f16701d44"><path d="M 496.175781 608 L 608 608 L 608 774.894531 L 496.175781 774.894531 Z M 496.175781 608 " clip-rule="nonzero"/></clipPath><clipPath id="3b07ba5481"><path d="M 508.125 673.875 C 508.875 699 509.851562 705.074219 511.648438 712.648438 C 514.125 722.550781 519.601562 740.398438 522.824219 746.550781 C 524.175781 749.101562 524.925781 750.601562 526.648438 751.574219 C 528.523438 752.699219 531.300781 751.800781 533.925781 752.625 C 537.523438 753.824219 542.773438 757.648438 546.148438 759.148438 C 548.324219 760.125 549.824219 760.800781 551.773438 761.101562 C 553.574219 761.398438 557.101562 760.351562 557.398438 761.101562 C 557.699219 761.851562 553.351562 766.199219 552.898438 765.976562 C 552.449219 765.75 553.425781 762.300781 554.476562 760.199219 C 556.125 757.199219 560.101562 750.976562 562.875 750.300781 C 564.824219 749.851562 568.425781 753.226562 568.648438 752.851562 C 568.875 752.550781 565.050781 749.925781 564.226562 748.125 C 563.398438 746.476562 563.476562 744.601562 563.476562 742.425781 C 563.625 739.5 564.074219 736.425781 565.425781 732.148438 C 567.976562 724.574219 578.25 707.851562 580.351562 701.625 C 581.175781 699 581.175781 698.175781 581.398438 695.851562 C 581.699219 692.324219 581.023438 686.25 581.398438 682.648438 C 581.625 680.023438 581.851562 678.976562 582.675781 676.125 C 584.324219 670.125 590.851562 657.148438 592.648438 649.425781 C 594 643.726562 594.148438 638.023438 594.148438 634.199219 C 594.226562 631.800781 593.476562 630.523438 593.773438 628.5 C 594.074219 626.175781 597 622.125 596.398438 621.074219 C 595.949219 620.398438 594.226562 621 593.476562 620.550781 C 592.800781 620.25 592.273438 619.726562 591.898438 619.050781 C 591.226562 618.074219 590.625 616.125 590.550781 614.925781 C 590.476562 614.101562 590.699219 613.5 590.925781 612.824219 C 591.148438 612.148438 591.375 611.476562 591.976562 610.875 C 592.726562 610.050781 594.449219 608.851562 595.574219 608.476562 C 596.324219 608.175781 596.925781 608.175781 597.75 608.25 C 598.875 608.476562 600.675781 609 601.726562 609.898438 C 602.773438 610.800781 603.601562 612.523438 603.898438 613.648438 C 604.125 614.398438 604.199219 615 604.050781 615.824219 C 603.75 616.949219 602.925781 618.824219 602.175781 619.726562 C 601.648438 620.398438 601.199219 620.699219 600.375 621 C 599.324219 621.449219 597.300781 621.824219 596.101562 621.675781 C 595.273438 621.601562 594.75 621.449219 594.074219 621 C 593.101562 620.324219 591.675781 618.824219 591.148438 617.773438 C 590.699219 617.101562 590.625 616.425781 590.550781 615.675781 C 590.476562 615 590.476562 614.25 590.699219 613.5 C 591.074219 612.375 591.898438 610.726562 592.949219 609.824219 C 594 608.925781 595.648438 608.324219 597 608.25 C 598.351562 608.175781 599.773438 608.625 601.125 609.449219 C 603.074219 610.648438 605.773438 613.199219 606.898438 615.601562 C 607.949219 618 607.648438 620.324219 607.726562 623.851562 C 607.875 629.925781 608.324219 640.425781 606.523438 649.199219 C 604.425781 659.324219 596.324219 671.476562 594.601562 680.773438 C 593.324219 687.675781 595.125 694.800781 594.449219 699.523438 C 594 702.449219 593.175781 704.324219 592.425781 706.648438 C 591.75 708.75 591.226562 710.398438 590.175781 712.648438 C 588.601562 715.949219 585.675781 720.226562 583.648438 724.199219 C 581.625 728.324219 578.773438 733.273438 577.875 736.875 C 577.273438 739.351562 577.425781 741.300781 577.574219 743.476562 C 577.800781 745.574219 579.300781 747.75 579.148438 749.699219 C 579 751.574219 578.398438 753.226562 577.125 755.101562 C 575.101562 758.101562 568.574219 761.550781 566.699219 764.625 C 565.5 766.726562 566.398438 769.199219 565.125 770.699219 C 563.625 772.574219 560.324219 773.773438 557.398438 774.375 C 553.875 775.050781 549 775.050781 545.175781 773.851562 C 541.125 772.5 537.75 768.074219 533.851562 766.273438 C 530.324219 764.625 525.898438 764.324219 522.824219 763.125 C 520.574219 762.226562 518.699219 761.699219 517.050781 760.351562 C 515.25 758.851562 514.050781 757.5 512.476562 754.574219 C 509.023438 748.125 503.476562 729.75 501 720.75 C 499.425781 714.824219 498.601562 710.699219 497.851562 705.824219 C 497.101562 701.25 496.574219 697.351562 496.425781 692.324219 C 496.199219 686.101562 495.898438 674.476562 497.25 671.175781 C 497.699219 669.976562 498.226562 669.601562 499.050781 669.074219 C 500.023438 668.476562 501.75 667.949219 503.023438 668.101562 C 504.300781 668.25 505.800781 669.074219 506.699219 670.050781 C 507.523438 670.949219 508.125 673.875 508.125 673.875 " clip-rule="nonzero"/></clipPath><clipPath id="bb819ccb03"><path d="M 247.382812 470.613281 L 272.246094 470.613281 L 272.246094 511.691406 L 247.382812 511.691406 Z M 247.382812 470.613281 " clip-rule="nonzero"/></clipPath><clipPath id="ec45e8ca69"><path d="M 248.023438 503.398438 C 259.574219 473.851562 261.226562 472.199219 263.101562 471.375 C 264.523438 470.699219 266.175781 470.625 267.523438 471 C 268.875 471.375 270.375 472.574219 271.199219 473.625 C 271.800781 474.449219 272.101562 475.5 272.175781 476.476562 C 272.25 477.449219 272.175781 478.5 271.726562 479.476562 C 271.125 480.675781 268.726562 482.851562 268.648438 482.773438 C 268.5 482.625 271.949219 477 272.175781 477.074219 C 272.324219 477.148438 271.648438 479.925781 270.898438 480.898438 C 270.074219 481.949219 268.574219 482.773438 267.523438 483.148438 C 266.773438 483.449219 266.25 483.449219 265.5 483.375 C 264.449219 483.226562 262.726562 482.699219 261.75 481.875 C 260.773438 481.050781 259.949219 479.625 259.648438 478.425781 C 259.425781 477.148438 259.726562 475.425781 260.101562 474.375 C 260.398438 473.625 260.699219 473.175781 261.300781 472.726562 C 262.125 471.976562 263.773438 471.074219 264.824219 470.851562 C 265.648438 470.625 266.175781 470.625 266.925781 470.851562 C 267.976562 471.074219 269.625 471.824219 270.449219 472.726562 C 271.351562 473.625 272.023438 475.125 272.175781 476.398438 C 272.25 477.675781 271.726562 479.398438 271.273438 480.375 C 270.898438 481.050781 270.601562 481.425781 269.925781 481.875 C 269.023438 482.550781 267.449219 483.300781 266.175781 483.375 C 264.898438 483.449219 263.324219 483 262.273438 482.25 C 261.226562 481.574219 260.023438 480.449219 259.875 479.023438 C 259.648438 477.074219 261.449219 472.574219 263.101562 471.375 C 264.300781 470.476562 266.175781 470.625 267.523438 471 C 268.875 471.375 270.449219 472.425781 271.199219 473.625 C 271.949219 474.824219 272.25 476.699219 272.101562 477.976562 C 272.023438 479.101562 271.574219 480 270.976562 480.824219 C 270.300781 481.726562 269.023438 482.023438 268.050781 483.300781 C 266.398438 485.550781 264.523438 490.351562 263.175781 494.101562 C 261.675781 497.925781 260.925781 503.175781 259.5 506.101562 C 258.601562 508.050781 257.699219 509.625 256.574219 510.523438 C 255.824219 511.199219 254.925781 511.425781 254.101562 511.574219 C 253.199219 511.726562 252.226562 511.648438 251.324219 511.351562 C 250.273438 510.898438 248.851562 509.699219 248.25 508.726562 C 247.726562 507.898438 247.5 507 247.5 506.101562 C 247.425781 505.199219 248.023438 503.398438 248.023438 503.398438 " clip-rule="nonzero"/></clipPath><clipPath id="0577594746"><path d="M 245.589844 599.25 L 273.300781 599.25 L 273.300781 633.304688 L 245.589844 633.304688 Z M 245.589844 599.25 " clip-rule="nonzero"/></clipPath><clipPath id="6bf694f5c6"><path d="M 257.25 605.101562 C 258.074219 610.050781 261.675781 615.523438 264.300781 618.074219 C 266.398438 620.101562 269.773438 620.773438 271.199219 622.351562 C 272.25 623.476562 272.851562 624.675781 273.074219 625.875 C 273.226562 627.148438 273 628.726562 272.398438 629.851562 C 271.800781 630.976562 270.601562 632.023438 269.476562 632.550781 C 268.273438 633.074219 266.699219 633.300781 265.5 633 C 264.226562 632.699219 262.875 631.875 262.050781 630.898438 C 261.226562 629.925781 260.773438 628.199219 260.625 627.148438 C 260.476562 626.398438 260.625 625.800781 260.851562 625.125 C 261 624.523438 261.226562 623.925781 261.675781 623.324219 C 262.351562 622.5 263.925781 621.300781 264.898438 620.925781 C 265.648438 620.625 266.175781 620.550781 266.925781 620.625 C 267.976562 620.699219 269.699219 621.148438 270.675781 621.898438 C 271.726562 622.648438 272.550781 624.226562 272.925781 625.273438 C 273.148438 625.949219 273.226562 626.476562 273.148438 627.226562 C 273 628.351562 272.398438 630 271.574219 630.976562 C 270.75 631.949219 269.175781 632.699219 268.125 633 C 267.449219 633.226562 267 633.300781 266.101562 633.074219 C 264.300781 632.625 260.324219 630.148438 258.226562 628.5 C 256.574219 627.148438 255.375 625.949219 254.175781 624.375 C 252.976562 622.726562 252.300781 620.550781 251.101562 618.75 C 249.824219 616.875 247.574219 615.675781 246.75 613.425781 C 245.699219 610.800781 245.398438 606 246 603.675781 C 246.449219 602.175781 247.273438 601.050781 248.324219 600.375 C 249.375 599.625 251.023438 599.25 252.226562 599.398438 C 253.5 599.550781 255 600.300781 255.824219 601.273438 C 256.648438 602.25 257.25 605.101562 257.25 605.101562 " clip-rule="nonzero"/></clipPath><clipPath id="21d806648e"><path d="M 522.710938 626.210938 L 568.542969 626.210938 L 568.542969 661.625 L 522.710938 661.625 Z M 522.710938 626.210938 " clip-rule="nonzero"/></clipPath><clipPath id="2468802499"><path d="M 524.550781 651.523438 C 556.425781 627.601562 558.601562 626.625 560.773438 626.324219 C 562.273438 626.101562 563.625 626.25 564.824219 626.773438 C 566.023438 627.375 567.148438 628.5 567.75 629.625 C 568.425781 630.75 568.648438 632.398438 568.425781 633.675781 C 568.199219 634.949219 567.449219 636.375 566.476562 637.273438 C 565.574219 638.175781 563.851562 638.773438 562.800781 639 C 561.976562 639.148438 561.375 639 560.699219 638.851562 C 560.023438 638.699219 559.425781 638.550781 558.75 638.101562 C 557.851562 637.425781 556.574219 635.925781 556.125 634.949219 C 555.75 634.273438 555.675781 633.75 555.675781 632.925781 C 555.75 631.875 556.050781 630.074219 556.800781 629.023438 C 557.550781 627.898438 558.824219 626.925781 560.101562 626.550781 C 561.300781 626.101562 562.949219 626.101562 564.148438 626.550781 C 565.425781 626.925781 566.699219 627.976562 567.449219 629.023438 C 568.125 630.148438 568.5 631.875 568.5 633 C 568.5 633.75 568.425781 634.351562 568.050781 635.023438 C 567.523438 636 566.550781 637.351562 565.425781 638.101562 C 564 639.074219 561.675781 639.226562 559.949219 640.125 C 558.074219 641.023438 556.875 641.851562 554.398438 643.5 C 549.148438 647.023438 534.300781 659.699219 530.101562 661.199219 C 528.824219 661.648438 528.300781 661.574219 527.398438 661.273438 C 526.273438 660.976562 524.699219 660.148438 523.949219 659.101562 C 523.199219 658.125 522.675781 656.476562 522.824219 655.199219 C 522.898438 654 524.550781 651.523438 524.550781 651.523438 " clip-rule="nonzero"/></clipPath><clipPath id="35763608bc"><path d="M 583.246094 579.722656 L 609.703125 579.722656 L 609.703125 617.515625 L 583.246094 617.515625 Z M 583.246094 579.722656 " clip-rule="nonzero"/></clipPath><clipPath id="c9ead534aa"><path d="M 583.351562 610.050781 C 590.699219 596.023438 595.875 591.300781 597.898438 587.550781 C 599.25 585.074219 598.875 581.851562 600.226562 580.648438 C 601.199219 579.824219 602.851562 579.75 604.125 579.898438 C 605.398438 580.050781 606.824219 580.800781 607.726562 581.625 C 608.625 582.523438 609.375 583.949219 609.523438 585.226562 C 609.75 586.5 609.226562 588.226562 608.773438 589.199219 C 608.476562 589.875 608.175781 590.324219 607.574219 590.773438 C 606.675781 591.449219 605.101562 592.273438 603.898438 592.351562 C 602.625 592.5 601.050781 592.125 600 591.449219 C 598.875 590.773438 597.898438 589.273438 597.449219 588.300781 C 597.074219 587.625 597.074219 587.023438 597.074219 586.351562 C 597 585.675781 597 585 597.300781 584.324219 C 597.675781 583.273438 598.574219 581.773438 599.625 581.023438 C 600.675781 580.273438 602.175781 579.824219 603.449219 579.824219 C 604.726562 579.898438 606.226562 580.425781 607.199219 581.175781 C 608.25 582 609.074219 583.351562 609.375 584.550781 C 609.75 585.824219 609.601562 587.398438 609.074219 588.601562 C 608.625 589.726562 606.449219 591.523438 606.449219 591.601562 C 606.449219 591.601562 607.800781 589.875 607.949219 589.949219 C 608.25 590.175781 607.425781 593.324219 606.300781 595.5 C 604.351562 599.398438 597.523438 606.75 595.273438 610.5 C 594.074219 612.675781 594.074219 614.625 592.949219 615.824219 C 591.976562 616.800781 590.476562 617.398438 589.199219 617.476562 C 587.925781 617.550781 586.273438 616.949219 585.300781 616.273438 C 584.476562 615.75 583.949219 615 583.574219 614.101562 C 583.199219 613.050781 583.351562 610.050781 583.351562 610.050781 " clip-rule="nonzero"/></clipPath><clipPath id="eb7fa0dbe7"><path d="M 550.148438 463.320312 L 570 463.320312 L 570 485 L 550.148438 485 Z M 550.148438 463.320312 " clip-rule="nonzero"/></clipPath><clipPath id="688d88ce07"><path d="M 559.574219 482.625 C 550.125 470.023438 550.199219 468.898438 550.5 467.699219 C 550.875 466.574219 551.699219 465.300781 552.675781 464.550781 C 553.648438 463.875 555.148438 463.425781 556.351562 463.425781 C 557.550781 463.425781 558.976562 463.949219 559.949219 464.699219 C 560.851562 465.449219 561.675781 466.726562 562.050781 467.851562 C 562.351562 469.050781 562.050781 470.699219 561.75 471.675781 C 561.523438 472.351562 561.300781 472.800781 560.773438 473.324219 C 560.023438 474 558.449219 474.976562 557.476562 475.199219 C 556.726562 475.425781 556.273438 475.425781 555.523438 475.351562 C 554.550781 475.125 552.976562 474.523438 552.074219 473.699219 C 551.25 472.800781 550.574219 471.300781 550.351562 470.25 C 550.199219 469.574219 550.199219 469.050781 550.351562 468.375 C 550.648438 467.324219 551.324219 465.824219 552.226562 465 C 553.050781 464.175781 554.476562 463.574219 555.675781 463.425781 C 556.875 463.351562 558.300781 463.574219 559.425781 464.324219 C 560.699219 465.226562 561.226562 467.550781 562.5 469.050781 C 563.851562 470.699219 566.175781 472.199219 567.375 473.851562 C 568.5 475.273438 569.550781 476.925781 569.851562 478.273438 C 570.074219 479.25 569.925781 480.148438 569.625 481.050781 C 569.324219 481.875 568.875 482.699219 568.125 483.300781 C 567.226562 484.050781 565.574219 484.800781 564.375 484.875 C 563.476562 485.023438 562.5 484.726562 561.75 484.351562 C 560.925781 483.976562 559.574219 482.625 559.574219 482.625 " clip-rule="nonzero"/></clipPath><clipPath id="829f54cc19"><path d="M 355.707031 664.480469 L 368.253906 664.480469 L 368.253906 693.976562 L 355.707031 693.976562 Z M 355.707031 664.480469 " clip-rule="nonzero"/></clipPath><clipPath id="7d5efd4a4c"><path d="M 356.101562 688.199219 C 355.949219 669.226562 356.023438 668.625 356.476562 667.800781 C 356.925781 666.976562 357.523438 666.148438 358.425781 665.625 C 359.476562 665.023438 361.351562 664.5 362.550781 664.574219 C 363.601562 664.648438 364.5 665.101562 365.324219 665.625 C 366.074219 666.148438 366.75 666.976562 367.199219 667.800781 C 367.648438 668.625 367.949219 669.601562 367.875 670.648438 C 367.875 671.773438 367.425781 673.273438 366.675781 674.25 C 365.925781 675.226562 364.425781 676.125 363.449219 676.425781 C 362.773438 676.726562 362.25 676.726562 361.5 676.648438 C 360.523438 676.5 358.800781 675.824219 357.898438 675.226562 C 357.300781 674.773438 357 674.398438 356.625 673.726562 C 356.175781 672.824219 355.726562 671.175781 355.800781 669.976562 C 355.949219 668.773438 356.625 667.351562 357.449219 666.449219 C 358.273438 665.550781 359.851562 664.875 360.898438 664.648438 C 361.574219 664.425781 362.175781 664.5 362.851562 664.648438 C 363.449219 664.726562 364.050781 664.875 364.726562 665.25 C 365.550781 665.851562 366.824219 666.976562 367.351562 668.101562 C 367.875 669.148438 367.875 670.875 367.800781 671.925781 C 367.648438 672.675781 367.5 673.125 367.050781 673.726562 C 366.449219 674.550781 365.25 675.824219 364.125 676.273438 C 362.925781 676.726562 361.273438 676.648438 360.226562 676.425781 C 359.476562 676.273438 359.023438 676.125 358.425781 675.601562 C 357.601562 675 356.476562 673.648438 356.101562 672.523438 C 355.726562 671.476562 355.648438 670.273438 355.949219 669.148438 C 356.324219 667.949219 357.449219 666.375 358.425781 665.625 C 359.175781 665.023438 360.074219 664.648438 361.125 664.574219 C 362.324219 664.5 364.199219 665.023438 365.324219 665.625 C 366.148438 666.148438 366.75 666.976562 367.199219 667.800781 C 367.648438 668.625 367.800781 669.226562 367.875 670.648438 C 368.25 674.25 368.625 687.375 366.976562 690.824219 C 366.226562 692.398438 365.101562 693.148438 363.898438 693.601562 C 362.699219 694.050781 360.976562 694.050781 359.773438 693.601562 C 358.574219 693.074219 357.375 691.875 356.699219 690.824219 C 356.25 690 356.101562 688.199219 356.101562 688.199219 " clip-rule="nonzero"/></clipPath><clipPath id="8025fdfde5"><path d="M 247.433594 607.8125 L 263.300781 607.8125 L 263.300781 647.960938 L 247.433594 647.960938 Z M 247.433594 607.8125 " clip-rule="nonzero"/></clipPath><clipPath id="8287eb9efd"><path d="M 247.5 642.148438 C 247.351562 619.648438 247.726562 618.148438 248.699219 616.050781 C 249.75 613.726562 251.550781 610.425781 253.273438 609.148438 C 254.398438 608.25 255.824219 607.875 257.101562 607.949219 C 258.300781 607.949219 259.875 608.476562 260.851562 609.300781 C 261.824219 610.050781 262.726562 611.398438 263.023438 612.675781 C 263.324219 613.875 263.023438 615.601562 262.726562 616.648438 C 262.5 617.324219 262.199219 617.851562 261.601562 618.375 C 260.851562 619.125 259.199219 620.023438 258.148438 620.324219 C 257.398438 620.550781 256.800781 620.476562 256.125 620.398438 C 255.449219 620.324219 254.851562 620.25 254.175781 619.800781 C 253.273438 619.273438 251.925781 618.148438 251.324219 617.023438 C 250.800781 615.898438 250.648438 614.101562 250.800781 613.050781 C 250.875 612.300781 251.101562 611.699219 251.476562 611.101562 C 251.773438 610.574219 252.148438 610.050781 252.75 609.523438 C 253.574219 608.925781 255.300781 608.101562 256.425781 607.949219 C 257.175781 607.800781 257.699219 607.875 258.449219 608.101562 C 259.425781 608.398438 261 609.226562 261.824219 610.199219 C 262.574219 611.25 263.101562 612.898438 263.175781 613.949219 C 263.324219 614.773438 263.25 615.148438 262.949219 615.976562 C 262.425781 617.550781 260.175781 619.425781 259.351562 622.351562 C 257.851562 627.375 260.023438 641.101562 258.226562 644.851562 C 257.476562 646.425781 256.273438 647.023438 255.226562 647.550781 C 254.324219 647.925781 253.425781 648 252.523438 647.851562 C 251.324219 647.625 249.75 646.949219 248.925781 645.976562 C 248.101562 645 247.5 642.148438 247.5 642.148438 " clip-rule="nonzero"/></clipPath><clipPath id="2d42960e64"><path d="M 44.851562 69.820312 L 77.984375 69.820312 L 77.984375 103.722656 L 44.851562 103.722656 Z M 44.851562 69.820312 " clip-rule="nonzero"/></clipPath><clipPath id="0f7a9ab8c2"><path d="M 77.925781 81.824219 C 77.925781 92.398438 76.648438 95.175781 75.074219 97.199219 C 73.425781 99.300781 71.101562 101.101562 68.699219 102.226562 C 66.300781 103.273438 63.375 103.800781 60.75 103.648438 C 58.125 103.5 55.273438 102.601562 53.023438 101.25 C 50.773438 99.898438 48.675781 97.800781 47.324219 95.550781 C 45.976562 93.300781 45.074219 90.449219 44.925781 87.824219 C 44.773438 85.199219 45.300781 82.273438 46.425781 79.875 C 47.476562 77.476562 49.351562 75.148438 51.375 73.5 C 53.398438 71.925781 56.175781 70.726562 58.726562 70.199219 C 61.351562 69.75 64.273438 69.898438 66.824219 70.726562 C 69.300781 71.476562 73.726562 74.925781 73.726562 74.925781 " clip-rule="nonzero"/></clipPath><clipPath id="4042b67675"><path d="M 87.828125 55.496094 L 120.960938 55.496094 L 120.960938 89.398438 L 87.828125 89.398438 Z M 87.828125 55.496094 " clip-rule="nonzero"/></clipPath><clipPath id="a9a436c396"><path d="M 120.898438 67.5 C 120.898438 78.148438 119.699219 80.851562 118.050781 82.949219 C 116.476562 84.976562 114.074219 86.851562 111.675781 87.898438 C 109.273438 88.949219 106.351562 89.476562 103.726562 89.324219 C 101.175781 89.175781 98.25 88.273438 96.074219 86.925781 C 93.824219 85.574219 91.648438 83.476562 90.300781 81.226562 C 88.949219 78.976562 88.050781 76.125 87.898438 73.5 C 87.75 70.949219 88.273438 67.949219 89.398438 65.550781 C 90.449219 63.226562 92.324219 60.824219 94.351562 59.25 C 96.449219 57.601562 99.148438 56.398438 101.699219 55.875 C 104.324219 55.425781 107.324219 55.648438 109.800781 56.398438 C 112.273438 57.148438 116.699219 60.601562 116.699219 60.601562 " clip-rule="nonzero"/></clipPath><clipPath id="cd56c33c3f"><path d="M 127.578125 72.144531 L 160.710938 72.144531 L 160.710938 106 L 127.578125 106 Z M 127.578125 72.144531 " clip-rule="nonzero"/></clipPath><clipPath id="0a620412a2"><path d="M 160.648438 84.148438 C 160.648438 94.800781 159.449219 97.5 157.800781 99.523438 C 156.226562 101.625 153.824219 103.5 151.425781 104.550781 C 149.023438 105.601562 146.101562 106.125 143.476562 105.976562 C 140.925781 105.824219 138 104.925781 135.824219 103.574219 C 133.574219 102.226562 131.398438 100.125 130.050781 97.875 C 128.699219 95.625 127.800781 92.773438 127.648438 90.148438 C 127.5 87.523438 128.023438 84.601562 129.148438 82.199219 C 130.199219 79.875 132.074219 77.476562 134.101562 75.898438 C 136.199219 74.25 138.898438 73.050781 141.449219 72.523438 C 144.074219 72.074219 147.074219 72.300781 149.550781 73.050781 C 152.023438 73.800781 156.449219 77.25 156.449219 77.25 " clip-rule="nonzero"/></clipPath><clipPath id="5e3d7974d4"><path d="M 72.6875 101.160156 L 127.058594 101.160156 L 127.058594 156.964844 L 72.6875 156.964844 Z M 72.6875 101.160156 " clip-rule="nonzero"/></clipPath><clipPath id="4299e5bad1"><path d="M 127.050781 120.75 C 127.050781 138.300781 125.023438 142.800781 122.398438 146.175781 C 119.699219 149.550781 115.875 152.550781 111.898438 154.351562 C 108 156.074219 103.125 156.976562 98.851562 156.75 C 94.574219 156.449219 89.851562 155.023438 86.175781 152.773438 C 82.5 150.601562 78.976562 147.074219 76.800781 143.398438 C 74.550781 139.726562 73.125 135 72.824219 130.726562 C 72.601562 126.449219 73.5 121.574219 75.226562 117.675781 C 77.023438 113.699219 80.023438 109.875 83.398438 107.175781 C 86.773438 104.550781 91.273438 102.523438 95.550781 101.773438 C 99.75 100.949219 104.699219 101.25 108.824219 102.523438 C 112.875 103.800781 120.148438 109.425781 120.148438 109.425781 " clip-rule="nonzero"/></clipPath><clipPath id="88fed0ed07"><path d="M 688.738281 564 L 743.109375 564 L 743.109375 619.789062 L 688.738281 619.789062 Z M 688.738281 564 " clip-rule="nonzero"/></clipPath><clipPath id="5ddedcb2ba"><path d="M 743.023438 583.574219 C 743.101562 601.125 741.074219 605.625 738.375 609 C 735.75 612.375 731.851562 615.375 727.949219 617.175781 C 724.050781 618.898438 719.175781 619.800781 714.898438 619.574219 C 710.625 619.273438 705.898438 617.851562 702.226562 615.601562 C 698.550781 613.425781 695.023438 609.898438 692.773438 606.226562 C 690.601562 602.550781 689.101562 597.824219 688.875 593.550781 C 688.574219 589.273438 689.476562 584.398438 691.273438 580.5 C 693 576.523438 696.074219 572.699219 699.449219 570 C 702.824219 567.375 707.324219 565.351562 711.601562 564.601562 C 715.800781 563.773438 720.75 564.074219 724.800781 565.351562 C 728.925781 566.625 736.199219 572.25 736.199219 572.25 " clip-rule="nonzero"/></clipPath><clipPath id="4127f0f5ab"><path d="M 658.882812 541.667969 L 688.371094 541.667969 L 688.371094 571.714844 L 658.882812 571.714844 Z M 658.882812 541.667969 " clip-rule="nonzero"/></clipPath><clipPath id="4529817e0c"><path d="M 688.273438 552.226562 C 688.273438 561.675781 687.148438 564.074219 685.726562 565.875 C 684.300781 567.75 682.199219 569.398438 680.101562 570.300781 C 678 571.273438 675.375 571.800781 673.050781 571.648438 C 670.726562 571.5 668.175781 570.675781 666.148438 569.476562 C 664.199219 568.273438 662.324219 566.398438 661.125 564.375 C 659.851562 562.425781 659.101562 559.875 658.949219 557.550781 C 658.800781 555.226562 659.324219 552.601562 660.226562 550.5 C 661.199219 548.398438 662.851562 546.300781 664.648438 544.875 C 666.523438 543.375 668.925781 542.324219 671.25 541.875 C 673.5 541.5 676.199219 541.648438 678.375 542.324219 C 680.625 543 684.523438 546.074219 684.523438 546.074219 " clip-rule="nonzero"/></clipPath><clipPath id="e811e7e4c8"><path d="M 704.558594 522.554688 L 733.90625 522.554688 L 733.90625 552.742188 L 704.558594 552.742188 Z M 704.558594 522.554688 " clip-rule="nonzero"/></clipPath><clipPath id="3afd9ad00c"><path d="M 733.875 533.175781 C 733.875 542.625 732.824219 545.101562 731.398438 546.898438 C 729.898438 548.773438 727.800781 550.351562 725.699219 551.324219 C 723.601562 552.300781 720.976562 552.75 718.648438 552.601562 C 716.324219 552.523438 713.773438 551.699219 711.824219 550.5 C 709.800781 549.300781 707.925781 547.425781 706.726562 545.398438 C 705.523438 543.449219 704.699219 540.898438 704.625 538.574219 C 704.476562 536.25 704.925781 533.625 705.898438 531.523438 C 706.875 529.351562 708.449219 527.25 710.324219 525.824219 C 712.125 524.398438 714.601562 523.351562 716.851562 522.898438 C 719.175781 522.449219 721.800781 522.675781 724.050781 523.351562 C 726.226562 524.023438 730.199219 527.023438 730.199219 527.023438 " clip-rule="nonzero"/></clipPath><clipPath id="8b2579cdf7"><path d="M 738.183594 543 L 768.339844 543 L 768.339844 573.546875 L 738.183594 573.546875 Z M 738.183594 543 " clip-rule="nonzero"/></clipPath><clipPath id="4c6b88f72a"><path d="M 768.226562 558.523438 C 766.949219 564.824219 766.125 566.324219 765.148438 567.601562 C 764.175781 568.875 762.976562 570 761.625 570.898438 C 760.351562 571.800781 758.773438 572.550781 757.273438 573 C 755.699219 573.375 753.976562 573.601562 752.398438 573.523438 C 750.824219 573.449219 749.175781 573.074219 747.675781 572.476562 C 746.175781 571.875 744.75 570.976562 743.476562 569.925781 C 742.273438 568.949219 741.148438 567.601562 740.324219 566.25 C 739.5 564.898438 738.898438 563.324219 738.523438 561.75 C 738.226562 560.175781 738.148438 558.449219 738.300781 556.875 C 738.449219 555.300781 738.898438 553.648438 739.574219 552.226562 C 740.25 550.726562 741.226562 549.300781 742.351562 548.175781 C 743.398438 546.976562 744.75 546 746.175781 545.25 C 747.601562 544.5 749.25 543.898438 750.824219 543.675781 C 752.398438 543.449219 754.050781 543.449219 755.625 543.675781 C 757.199219 543.898438 758.851562 544.5 760.273438 545.25 C 761.699219 546 763.050781 546.976562 764.101562 548.175781 C 765.226562 549.300781 766.199219 550.726562 766.875 552.226562 C 767.550781 553.648438 768 555.300781 768.148438 556.875 C 768.300781 558.449219 768.226562 560.175781 767.925781 561.75 C 767.550781 563.324219 766.949219 564.898438 766.125 566.25 C 765.300781 567.601562 764.175781 568.949219 762.976562 569.925781 C 761.699219 570.976562 760.273438 571.875 758.773438 572.476562 C 757.273438 573.074219 755.625 573.449219 754.050781 573.523438 C 752.398438 573.601562 750.75 573.375 749.175781 573 C 747.675781 572.550781 746.101562 571.800781 744.824219 570.898438 C 743.476562 570 742.199219 568.875 741.226562 567.601562 C 740.324219 566.324219 739.5 564.824219 738.976562 563.324219 C 738.449219 561.75 738.148438 560.25 738.226562 558.523438 C 738.226562 556.351562 738.675781 553.574219 739.726562 551.476562 C 740.773438 549.375 742.875 547.199219 744.375 545.925781 C 745.425781 545.101562 746.175781 544.648438 747.523438 544.199219 C 749.398438 543.523438 752.324219 542.925781 754.648438 543.148438 C 756.976562 543.375 759.75 544.5 761.398438 545.476562 C 762.601562 546.148438 763.273438 546.75 764.175781 547.800781 C 765.449219 549.300781 767.101562 552.226562 767.699219 554.101562 C 768.148438 555.375 768.226562 557.699219 768.226562 557.699219 " clip-rule="nonzero"/></clipPath></defs><rect x="-81" width="972" fill="#ffffff" y="-80.999999" height="971.999992" fill-opacity="1"/><rect x="-81" width="972" fill="#ffffff" y="-80.999999" height="971.999992" fill-opacity="1"/><g clip-path="url(#3d6c30be3f)"><g clip-path="url(#df37b9087f)"><path fill="#030505" d="M 170.324219 142.351562 L 366.898438 142.351562 L 366.898438 350.882812 L 170.324219 350.882812 Z M 170.324219 142.351562 " fill-opacity="1" fill-rule="nonzero"/></g></g><g clip-path="url(#4ec21f3280)"><g clip-path="url(#7b81094bc4)"><path fill="#030505" d="M 349.648438 112.199219 L 587.308594 112.199219 L 587.308594 220.648438 L 349.648438 220.648438 Z M 349.648438 112.199219 " fill-opacity="1" fill-rule="nonzero"/></g></g><g clip-path="url(#548fcad48e)"><g clip-path="url(#8e684c8207)"><path fill="#030505" d="M 569.851562 203.101562 L 641.398438 203.101562 L 641.398438 321.046875 L 569.851562 321.046875 Z M 569.851562 203.101562 " fill-opacity="1" fill-rule="nonzero"/></g></g><g clip-path="url(#526aef55af)"><g clip-path="url(#4f5483ce52)"><path fill="#030505" d="M 571.125 298.351562 L 648.523438 298.351562 L 648.523438 400.238281 L 571.125 400.238281 Z M 571.125 298.351562 " fill-opacity="1" fill-rule="nonzero"/></g></g><g clip-path="url(#2840bd2cb4)"><g clip-path="url(#478df11a4e)"><path fill="#030505" d="M 528.75 381.75 L 588.75 381.75 L 588.75 484.171875 L 528.75 484.171875 Z M 528.75 381.75 " fill-opacity="1" fill-rule="nonzero"/></g></g><g clip-path="url(#258271b37a)"><g clip-path="url(#76d31adc78)"><path fill="#030505" d="M 218.101562 401.101562 L 546.242188 401.101562 L 546.242188 541.574219 L 218.101562 541.574219 Z M 218.101562 401.101562 " fill-opacity="1" fill-rule="nonzero"/></g></g><g clip-path="url(#68e4dbbe12)"><g clip-path="url(#971e2bb908)"><path fill="#030505" d="M 315.523438 334.949219 L 360.226562 334.949219 L 360.226562 379.648438 L 315.523438 379.648438 Z M 315.523438 334.949219 " fill-opacity="1" fill-rule="nonzero"/></g></g><g clip-path="url(#2844a12809)"><g clip-path="url(#ee061f4d88)"><path fill="#030505" d="M 445.574219 338.25 L 490.273438 338.25 L 490.273438 382.949219 L 445.574219 382.949219 Z M 445.574219 338.25 " fill-opacity="1" fill-rule="nonzero"/></g></g><g clip-path="url(#94e52dc5f6)"><g clip-path="url(#727c92c340)"><path fill="#030505" d="M 382.199219 379.425781 L 429.140625 379.425781 L 429.140625 420.300781 L 382.199219 420.300781 Z M 382.199219 379.425781 " fill-opacity="1" fill-rule="nonzero"/></g></g><g clip-path="url(#b3c0603919)"><g clip-path="url(#13b2c1a385)"><path fill="#030505" d="M 166.199219 342.824219 L 223.199219 342.824219 L 223.199219 415.855469 L 166.199219 415.855469 Z M 166.199219 342.824219 " fill-opacity="1" fill-rule="nonzero"/></g></g><g clip-path="url(#b76469e9fb)"><g clip-path="url(#379b7a96fe)"><path fill="#030505" d="M 238.351562 497.25 L 263.476562 497.25 L 263.476562 611.195312 L 238.351562 611.195312 Z M 238.351562 497.25 " fill-opacity="1" fill-rule="nonzero"/></g></g><g clip-path="url(#2bd9680060)"><g clip-path="url(#5700eee2bd)"><path fill="#030505" d="M 255.148438 618.449219 L 538.988281 618.449219 L 538.988281 681.523438 L 255.148438 681.523438 Z M 255.148438 618.449219 " fill-opacity="1" fill-rule="nonzero"/></g></g><g clip-path="url(#6dd4c6408c)"><g clip-path="url(#6d984792b8)"><path fill="#030505" d="M 559.875 475.351562 L 612.449219 475.351562 L 612.449219 602.0625 L 559.875 602.0625 Z M 559.875 475.351562 " fill-opacity="1" fill-rule="nonzero"/></g></g><g clip-path="url(#e8e8ced1ec)"><g clip-path="url(#4007e0a26d)"><path fill="#030505" d="M 539.773438 603.148438 L 595.484375 603.148438 L 595.484375 644.851562 L 539.773438 644.851562 Z M 539.773438 603.148438 " fill-opacity="1" fill-rule="nonzero"/></g></g><g clip-path="url(#cfeaed6b6c)"><g clip-path="url(#4b57c5fe56)"><path fill="#030505" d="M 240.449219 633.75 L 372.449219 633.75 L 372.449219 783.28125 L 240.449219 783.28125 Z M 240.449219 633.75 " fill-opacity="1" fill-rule="nonzero"/></g></g><g clip-path="url(#3f16701d44)"><g clip-path="url(#3b07ba5481)"><path fill="#030505" d="M 493.425781 605.25 L 610.800781 605.25 L 610.800781 777.1875 L 493.425781 777.1875 Z M 493.425781 605.25 " fill-opacity="1" fill-rule="nonzero"/></g></g><g clip-path="url(#bb819ccb03)"><g clip-path="url(#ec45e8ca69)"><path fill="#030505" d="M 244.5 467.851562 L 275.25 467.851562 L 275.25 514.695312 L 244.5 514.695312 Z M 244.5 467.851562 " fill-opacity="1" fill-rule="nonzero"/></g></g><g clip-path="url(#0577594746)"><g clip-path="url(#6bf694f5c6)"><path fill="#030505" d="M 243 596.398438 L 276.148438 596.398438 L 276.148438 636.152344 L 243 636.152344 Z M 243 596.398438 " fill-opacity="1" fill-rule="nonzero"/></g></g><g clip-path="url(#21d806648e)"><g clip-path="url(#2468802499)"><path fill="#030505" d="M 519.824219 623.324219 L 571.585938 623.324219 L 571.585938 664.351562 L 519.824219 664.351562 Z M 519.824219 623.324219 " fill-opacity="1" fill-rule="nonzero"/></g></g><g clip-path="url(#35763608bc)"><g clip-path="url(#c9ead534aa)"><path fill="#030505" d="M 580.351562 576.824219 L 612.601562 576.824219 L 612.601562 620.539062 L 580.351562 620.539062 Z M 580.351562 576.824219 " fill-opacity="1" fill-rule="nonzero"/></g></g><g clip-path="url(#eb7fa0dbe7)"><g clip-path="url(#688d88ce07)"><path fill="#030505" d="M 547.351562 460.425781 L 572.925781 460.425781 L 572.925781 488 L 547.351562 488 Z M 547.351562 460.425781 " fill-opacity="1" fill-rule="nonzero"/></g></g><g clip-path="url(#829f54cc19)"><g clip-path="url(#7d5efd4a4c)"><path fill="#030505" d="M 352.800781 661.574219 L 370.949219 661.574219 L 370.949219 696.597656 L 352.800781 696.597656 Z M 352.800781 661.574219 " fill-opacity="1" fill-rule="nonzero"/></g></g><g clip-path="url(#8025fdfde5)"><g clip-path="url(#8287eb9efd)"><path fill="#030505" d="M 244.050781 604.949219 L 266.25 604.949219 L 266.25 650.910156 L 244.050781 650.910156 Z M 244.050781 604.949219 " fill-opacity="1" fill-rule="nonzero"/></g></g><g clip-path="url(#2d42960e64)"><g clip-path="url(#0f7a9ab8c2)"><path fill="#030505" d="M 41.925781 67.199219 L 81.375 67.199219 L 81.375 106.648438 L 41.925781 106.648438 Z M 41.925781 67.199219 " fill-opacity="1" fill-rule="nonzero"/></g></g><g clip-path="url(#4042b67675)"><g clip-path="url(#a9a436c396)"><path fill="#030505" d="M 84.898438 52.875 L 124.351562 52.875 L 124.351562 92.324219 L 84.898438 92.324219 Z M 84.898438 52.875 " fill-opacity="1" fill-rule="nonzero"/></g></g><g clip-path="url(#cd56c33c3f)"><g clip-path="url(#0a620412a2)"><path fill="#030505" d="M 124.648438 69.523438 L 164.101562 69.523438 L 164.101562 108.976562 L 124.648438 108.976562 Z M 124.648438 69.523438 " fill-opacity="1" fill-rule="nonzero"/></g></g><g clip-path="url(#5e3d7974d4)"><g clip-path="url(#4299e5bad1)"><path fill="#030505" d="M 69.824219 98.773438 L 130.875 98.773438 L 130.875 159.824219 L 69.824219 159.824219 Z M 69.824219 98.773438 " fill-opacity="1" fill-rule="nonzero"/></g></g><g clip-path="url(#88fed0ed07)"><g clip-path="url(#5ddedcb2ba)"><path fill="#030505" d="M 685.875 561.601562 L 746.925781 561.601562 L 746.925781 622.648438 L 685.875 622.648438 Z M 685.875 561.601562 " fill-opacity="1" fill-rule="nonzero"/></g></g><g clip-path="url(#4127f0f5ab)"><g clip-path="url(#4529817e0c)"><path fill="#030505" d="M 655.949219 538.875 L 691.726562 538.875 L 691.726562 574.648438 L 655.949219 574.648438 Z M 655.949219 538.875 " fill-opacity="1" fill-rule="nonzero"/></g></g><g clip-path="url(#e811e7e4c8)"><g clip-path="url(#3afd9ad00c)"><path fill="#030505" d="M 701.625 519.898438 L 737.398438 519.898438 L 737.398438 555.675781 L 701.625 555.675781 Z M 701.625 519.898438 " fill-opacity="1" fill-rule="nonzero"/></g></g><g clip-path="url(#8b2579cdf7)"><g clip-path="url(#4c6b88f72a)"><path fill="#030505" d="M 735.226562 540.148438 L 771.300781 540.148438 L 771.300781 576.507812 L 735.226562 576.507812 Z M 735.226562 540.148438 " fill-opacity="1" fill-rule="nonzero"/></g></g></svg>